<svg width="200" height="113" viewBox="0 0 200 113" fill="none" xmlns="http://www.w3.org/2000/svg">
<rect width="200" height="113" rx="8" fill="url(#paint0_linear_3100_18822)"/>
<path d="M102.931 50.5466L101.274 52.2287C100.552 52.9604 99.3845 52.9604 98.6635 52.2287L97.0375 50.5788C96.3101 49.8406 95.1311 49.8487 94.4132 50.5948L94.3403 50.6704C91.2199 53.9125 91.2199 59.0875 94.3403 62.328L94.4132 62.4035C95.1311 63.1497 96.3117 63.1562 97.0375 62.4196L98.6635 60.7697C99.3845 60.0379 100.552 60.0379 101.274 60.7697L102.931 62.4518C103.646 63.1771 104.803 63.1835 105.525 62.4663C108.825 59.1937 108.825 53.8063 105.525 50.5337C104.803 49.8165 103.646 49.8229 102.931 50.5482V50.5466Z" fill="white"/>
<defs>
<linearGradient id="paint0_linear_3100_18822" x1="100" y1="0" x2="100" y2="113" gradientUnits="userSpaceOnUse">
<stop stop-color="#3F3F3F"/>
<stop offset="1" stop-color="#262626"/>
</linearGradient>
</defs>
</svg>
